<svg height="654" width="720" xmlns="http://www.w3.org/2000/svg">
<rect height="654" fill="#555" width="720"></rect>
<text fill="#7f7" font-family="Courier New" font-size="12" xml:space="preserve">
<tspan x="10" y="26">└─┬ amazon-product-api@0.4.3 </tspan>
<tspan x="10" y="42">  ├── es6-promise@3.0.2 </tspan>
<tspan x="10" y="58">  ├─┬ request@2.53.0 </tspan>
<tspan x="10" y="74">  │ ├── aws-sign2@0.5.0 </tspan>
<tspan x="10" y="90">  │ ├─┬ bl@0.9.5 </tspan>
<tspan x="10" y="106">  │ │ └─┬ readable-stream@1.0.34 </tspan>
<tspan x="10" y="122">  │ │   ├── core-util-is@1.0.2 </tspan>
<tspan x="10" y="138">  │ │   ├── inherits@2.0.3 </tspan>
<tspan x="10" y="154">  │ │   ├── isarray@0.0.1 </tspan>
<tspan x="10" y="170">  │ │   └── string_decoder@0.10.31 </tspan>
<tspan x="10" y="186">  │ ├── caseless@0.9.0 </tspan>
<tspan x="10" y="202">  │ ├─┬ combined-stream@0.0.7 </tspan>
<tspan x="10" y="218">  │ │ └── delayed-stream@0.0.5 </tspan>
<tspan x="10" y="234">  │ ├── forever-agent@0.5.2 </tspan>
<tspan x="10" y="250">  │ ├─┬ form-data@0.2.0 </tspan>
<tspan x="10" y="266">  │ │ └── async@0.9.2 </tspan>
<tspan x="10" y="282">  │ ├─┬ hawk@2.3.1 </tspan>
<tspan x="10" y="298">  │ │ ├── boom@2.10.1 </tspan>
<tspan x="10" y="314">  │ │ ├── cryptiles@2.0.5 </tspan>
<tspan x="10" y="330">  │ │ ├── hoek@2.16.3 </tspan>
<tspan x="10" y="346">  │ │ └── sntp@1.0.9 </tspan>
<tspan x="10" y="362">  │ ├─┬ http-signature@0.10.1 </tspan>
<tspan x="10" y="378">  │ │ ├── asn1@0.1.11 </tspan>
<tspan x="10" y="394">  │ │ ├── assert-plus@0.1.5 </tspan>
<tspan x="10" y="410">  │ │ └── ctype@0.5.3 </tspan>
<tspan x="10" y="426">  │ ├── isstream@0.1.2 </tspan>
<tspan x="10" y="442">  │ ├── json-stringify-safe@5.0.1 </tspan>
<tspan x="10" y="458">  │ ├─┬ mime-types@2.0.14 </tspan>
<tspan x="10" y="474">  │ │ └── mime-db@1.12.0 </tspan>
<tspan x="10" y="490">  │ ├── node-uuid@1.4.8 </tspan>
<tspan x="10" y="506">  │ ├── oauth-sign@0.6.0 </tspan>
<tspan x="10" y="522">  │ ├── qs@2.3.3 </tspan>
<tspan x="10" y="538">  │ ├── stringstream@0.0.5 </tspan>
<tspan x="10" y="554">  │ ├─┬ tough-cookie@2.3.2 </tspan>
<tspan x="10" y="570">  │ │ └── punycode@1.4.1 </tspan>
<tspan x="10" y="586">  │ └── tunnel-agent@0.4.3 </tspan>
<tspan x="10" y="602">  └─┬ xml2js@0.4.5 </tspan>
<tspan x="10" y="618">    ├── sax@0.6.1 </tspan>
<tspan x="10" y="634">    └── xmlbuilder@8.2.2</tspan>
</text>
</svg>
